<?xml version="1.0" ?><svg xmlns="http://www.w3.org/2000/svg" viewBox="0 0 512 512"><defs><style>.cls-1{fill:#f9f9f9;}.cls-2{fill:#c8effe;}.cls-3{fill:#f9ed32;}.cls-4{fill:#6eb8ea;}.cls-5{fill:#f9d1a0;}</style></defs><title/><g id="photo"><rect class="cls-1" width="512" height="512" rx="31.234"/><rect class="cls-2" x="47" y="45.393" width="418" height="373.214"/><path class="cls-3" d="M205.927,227.75a50.073,50.073,0,1,1,100.146,0"/><rect class="cls-3" x="253.139" y="154.5" width="5.723" height="17.168" rx="2.861"/><rect class="cls-3" x="207.413" y="173.44" width="5.723" height="17.168" rx="2.861" transform="translate(-67.123 202) rotate(-45)"/><rect class="cls-3" x="188.473" y="203.692" width="5.723" height="17.168" rx="2.861" transform="translate(-20.942 403.609) rotate(-90)"/><rect class="cls-3" x="317.805" y="203.692" width="5.723" height="17.168" rx="2.861" transform="translate(532.942 -108.391) rotate(90)"/><rect class="cls-3" x="298.864" y="173.44" width="5.723" height="17.168" rx="2.861" transform="translate(217.084 -160.039) rotate(45)"/><path class="cls-4" d="M465,418.607H47V216c26,11,409.374-4.342,418-4Z"/><path class="cls-5" d="M465,418.607H47v-162c175.919,4.986,153.6,68.46,418,84.393Z"/></g></svg>